<svg xmlns="http://www.w3.org/2000/svg" xmlns:xlink="http://www.w3.org/1999/xlink" viewBox="0 0 751.2 500"><style><![CDATA[.AK{fill:#eea886}.AL{fill:#23344a}.AM{fill:#323657}.AN{fill:#db9c7c}.AO{fill:#3f74a0}.AP{fill:#ad3434}]]></style><linearGradient id="A" gradientUnits="userSpaceOnUse" x1="164.572" y1="243.821" x2="502.563" y2="243.821"><stop offset="0" stop-color="#a246c4"/><stop offset="1" stop-color="#5eafff"/></linearGradient><path d="M185.1 98.3h302.4v291.1H185.1z" fill="url(#A)"/><linearGradient id="B" gradientUnits="userSpaceOnUse" x1="505.426" y1="270.971" x2="563.113" y2="270.971"><stop offset=".005" stop-color="#595959"/><stop offset="1" stop-color="#fff"/></linearGradient><path d="M559.8 283.1s-16.4-45.1-54.4-33.3c0 0 32 5.1 48.5 32 16.4 26.8 5.9 1.3 5.9 1.3z" fill="url(#B)"/><linearGradient id="C" gradientUnits="userSpaceOnUse" x1="550.056" y1="270.971" x2="607.743" y2="270.971"><stop offset=".005" stop-color="#595959"/><stop offset="1" stop-color="#fff"/></linearGradient><path d="M553.4 283.1s16.4-45.1 54.4-33.3c0 0-32 5.1-48.5 32-16.4 26.8-5.9 1.3-5.9 1.3z" fill="url(#C)"/><linearGradient id="D" gradientUnits="userSpaceOnUse" x1="593.356" y1="267.68" x2="625.186" y2="267.68"><stop offset=".005" stop-color="#b3b3b3"/><stop offset="1" stop-color="#fff"/></linearGradient><path d="M593.4 247.9s25.8-2.7 1 38l13.4 1.6c-.1 0 47.5-41.7-14.4-39.6z" fill="url(#D)"/><linearGradient id="E" gradientUnits="userSpaceOnUse" x1="547.772" y1="280.695" x2="564.326" y2="280.695"><stop offset=".005" stop-color="#b3b3b3"/><stop offset="1" stop-color="#fff"/></linearGradient><path d="M564.3 283.2l-4.5 2-1.2.5s-17.8-5-7.8-9.3c2.4-1 4.4-1.2 6.1-.8 5.4 1.3 7.4 7.6 7.4 7.6z" fill="url(#E)"/><linearGradient id="F" gradientUnits="userSpaceOnUse" x1="547.772" y1="280.695" x2="559.816" y2="280.695"><stop offset=".005" stop-color="#595959"/><stop offset="1" stop-color="#fff"/></linearGradient><path d="M559.8 285.3l-1.2.5s-17.8-5-7.8-9.3c2.4-1 4.4-1.2 6.1-.8.1.1-7.8 2.7 2.9 9.6z" fill="url(#F)"/><linearGradient id="G" gradientUnits="userSpaceOnUse" x1="554.703" y1="412.161" x2="554.703" y2="319.422"><stop offset="0" stop-color="#40d5e6"/><stop offset="1" stop-color="#57f"/></linearGradient><path d="M485.5 280.7h138.3v108.7H485.5z" fill="url(#G)"/><linearGradient id="H" gradientUnits="userSpaceOnUse" x1="480.623" y1="297.028" x2="628.78" y2="297.028"><stop offset="0" stop-color="#40d5e6"/><stop offset="1" stop-color="#57f"/></linearGradient><path d="M480.6 280.7h148.2v32.6H480.6z" fill="url(#H)"/><linearGradient id="I" gradientUnits="userSpaceOnUse" x1="577.215" y1="335.048" x2="530.705" y2="335.048"><stop offset=".005" stop-color="#b3b3b3"/><stop offset="1" stop-color="#fff"/></linearGradient><path d="M539.8 280.7h29.8v108.7h-29.8z" fill="url(#I)"/><linearGradient id="J" gradientUnits="userSpaceOnUse" x1="620.083" y1="308.28" x2="643.055" y2="308.28"><stop offset="0" stop-color="#1f3073"/><stop offset="1" stop-color="#4e6cde"/></linearGradient><path d="M643.1 317s-12-4.4-18.7-9.3c-2-1.5-3.5-3-4-4.4-.5-1.3-.3-2.5.9-3.6 0 0 .8-.3 2.8.5 3 1.3 8.8 5.1 18.6 16.4l.4.4z" fill="url(#J)"/><linearGradient id="K" gradientUnits="userSpaceOnUse" x1="608.838" y1="311.089" x2="643.055" y2="311.089"><stop offset="0" stop-color="#7c3596"/><stop offset="1" stop-color="#3098ff"/></linearGradient><path d="M643.1 317l-.7 3.4s-24 6-31.7-1.8l-.3-.3c-.7-.8-1.1-1.6-1.3-2.4-2.2-7.4 12.2-16.1 12.2-16.1-.3.4-.2 1 .2 1.7s1.1 1.5 2 2.3c5.6 5.2 19.6 13.2 19.6 13.2z" fill="url(#K)"/><linearGradient id="L" gradientUnits="userSpaceOnUse" x1="605.149" y1="319.631" x2="626.645" y2="298.633"><stop offset="0" stop-color="#354996"/><stop offset="1" stop-color="#4e6cde"/></linearGradient><path d="M623.4 303.6s-4.9 2-6.4 5.2-2.3 5.9-4.4 6.9c-1 .5-1.7 1.4-2.2 2.4-.7-.8-1.1-1.6-1.3-2.4.2-1.3.6-2.7 1.7-3.9 3.1-3.6 6.2-6.3 6.6-7.6.3-1 2.9-2.3 4.1-2.9.3.7 1 1.5 1.9 2.3h0z" fill="url(#L)"/><linearGradient id="M" gradientUnits="userSpaceOnUse" x1="650.377" y1="308.28" x2="673.35" y2="308.28"><stop offset="0" stop-color="#1f3073"/><stop offset="1" stop-color="#4e6cde"/></linearGradient><path d="M650.4 317s12-4.4 18.7-9.3c2-1.5 3.5-3 4-4.4.5-1.3.3-2.5-.9-3.6 0 0-.8-.3-2.8.5-3 1.3-8.8 5.1-18.6 16.4a.78.78 0 0 0-.4.4z" fill="url(#M)"/><linearGradient id="N" gradientUnits="userSpaceOnUse" x1="650.377" y1="311.089" x2="684.595" y2="311.089"><stop offset="0" stop-color="#7c3596"/><stop offset="1" stop-color="#3098ff"/></linearGradient><path d="M650.4 317l.7 3.4s24 6 31.7-1.8l.3-.3c.7-.8 1.1-1.6 1.3-2.4 2.2-7.4-12.2-16.1-12.2-16.1.3.4.2 1-.2 1.7s-1.1 1.5-2 2.3c-5.6 5.2-19.6 13.2-19.6 13.2z" fill="url(#N)"/><linearGradient id="O" gradientUnits="userSpaceOnUse" x1="646.669" y1="319.16" x2="646.17" y2="313.072"><stop offset="0" stop-color="#354996"/><stop offset="1" stop-color="#4e6cde"/></linearGradient><path d="M642.1 317s1.1-1.3 1.9-.8 1.9-1 3.1-.4 1.3-1 2.8-.1 2.3 3.8 1.2 5.2c-1.1 1.5-1.7-.3-2.2 0s-1.5 1.6-3.2.6-4.1.9-3.9-.3c.2-1.3-.4-1.8.3-4.2z" fill="url(#O)"/><linearGradient id="P" gradientUnits="userSpaceOnUse" x1="646.716" y1="375.56" x2="646.716" y2="325.566"><stop offset="0" stop-color="#ffc05c"/><stop offset="1" stop-color="#ff3857"/></linearGradient><path d="M602.7 320.2h88.1v69.2h-88.1z" fill="url(#P)"/><linearGradient id="Q" gradientUnits="userSpaceOnUse" x1="646.716" y1="348.334" x2="646.716" y2="293.205"><stop offset="0" stop-color="#ffc05c"/><stop offset="1" stop-color="#ff3857"/></linearGradient><path d="M599.6 320.2h94.3v24h-94.3z" fill="url(#Q)"/><linearGradient id="R" gradientUnits="userSpaceOnUse" x1="646.716" y1="391.607" x2="646.716" y2="295.986"><stop offset="0" stop-color="#7c3596"/><stop offset="1" stop-color="#3098ff"/></linearGradient><path d="M637.2 320.2h18.9v69.2h-18.9z" fill="url(#R)"/><linearGradient id="S" gradientUnits="userSpaceOnUse" x1="91.411" y1="150.743" x2="178.32" y2="150.743"><stop offset="0" stop-color="#40d5e6"/><stop offset="1" stop-color="#57f"/></linearGradient><path d="M134 200.1c15.2 10.6 30.2 17.7 38.2 13.4.5-.3.9-.6 1.3-.9 4.6-3.6 6.2-12.1 3.1-27.5-8.2-40.9-33.9-47.4-57.9-59.7-23.7-12.1-14.7-38-14.4-38.6-32.7 58 3.9 95.2 29.7 113.3z" fill="url(#S)"/><linearGradient id="T" gradientUnits="userSpaceOnUse" x1="180.907" y1="223.229" x2="128.855" y2="157.339"><stop offset="0" stop-color="#40d5e6"/><stop offset="1" stop-color="#57f"/></linearGradient><path d="M172.3 213.5c.5-.3.9-.6 1.3-.9-3-8-9.7-23.3-18.8-31.7-4.3-3.9-9.3-7.5-14.6-11.2-10-7.1-20.3-14.5-27.3-25.3l-1.3.8c7.2 11.1 17.6 18.5 27.7 25.7 5.2 3.7 10.2 7.3 14.4 11.1 8.9 8.2 15.6 23.7 18.6 31.5z" fill="url(#T)"/><linearGradient id="U" gradientUnits="userSpaceOnUse" x1="57.307" y1="223.216" x2="208.135" y2="223.216"><stop offset="0" stop-color="#40d5e6"/><stop offset="1" stop-color="#57f"/></linearGradient><path d="M89.3 241.9c21 3.4 34.6-13.2 58.8 17.4 20.9 26.4 50.5-2.8 58.1-11.3 1.2-1.3 1.9-2.2 1.9-2.2s-.5.1-1.3.3c-5.2 1.1-25.1 4.4-29.8-10.8-5.4-17.5-20.9-41.2-41.3-34.9s-24.8-9.1-39.9-20.7-38.5 9.8-38.5 9.8 11 48.9 32 52.4z" fill="url(#U)"/><linearGradient id="V" gradientUnits="userSpaceOnUse" x1="200.201" y1="261.005" x2="114.362" y2="203.21"><stop offset="0" stop-color="#40d5e6"/><stop offset="1" stop-color="#57f"/></linearGradient><path d="M155.2 236.1c4 6.9 8.1 14.1 17.5 18.1 12.8 5.4 25.8-.9 33.6-6.1 1.2-1.3 1.9-2.2 1.9-2.2s-.5.1-1.3.3c-7.3 5.2-20.7 12.4-33.7 6.9-9-3.8-13-10.8-16.9-17.6-4.5-7.8-9.2-15.9-21.4-18.7-5.4-1.2-10.2-.8-14.9-.5-6.7.6-13 1.1-19.9-3.7l-.7 1c7.3 5 13.8 4.5 20.7 3.9 4.6-.4 9.3-.8 14.5.4 11.7 2.7 16 10.2 20.6 18.2z" fill="url(#V)"/><linearGradient id="W" gradientUnits="userSpaceOnUse" x1="445.717" y1="140.081" x2="522.721" y2="126.308"><stop offset="0" stop-color="#40d5e6"/><stop offset="1" stop-color="#57f"/></linearGradient><path d="M481.2 144.1c2.3 41.6 35.2 39.5 37.8 39.3h.2a43.76 43.76 0 0 1-2-2.5c-16.5-22.9 2.3-54.2 2-77.2-.3-23.9-21.6-29.1-21.6-29.1 15.6 13-18.8 26.2-16.4 69.5z" fill="url(#W)"/><linearGradient id="X" gradientUnits="userSpaceOnUse" x1="113.595" y1="-594.416" x2="76.673" y2="-663.379"><stop offset="0" stop-color="#40d5e6"/><stop offset="1" stop-color="#57f"/></linearGradient><path d="M500.5 165c4.5 8 11.5 14 18.5 18.3h.2a43.76 43.76 0 0 1-2-2.5c-6-4.1-11.8-9.5-15.7-16.3-5-8.8-5.8-18.6-2.5-29 10.4-33 4.5-38.3 4.3-38.5l-.4.5-.4.4c.3.3 5.2 6.2-4.6 37.3-3.4 10.6-2.5 20.7 2.6 29.8z" fill="url(#X)"/><linearGradient id="Y" gradientUnits="userSpaceOnUse" x1="522.136" y1="212.176" x2="569.313" y2="17.166"><stop offset="0" stop-color="#40d5e6"/><stop offset="1" stop-color="#57f"/></linearGradient><path d="M547.6 185.6c-13.1 16.2-27 28.5-37 26.3-.6-.1-1.2-.3-1.7-.5-6.1-2.5-10.4-11.1-11.9-28.6-3.9-46.5 21.7-61.5 43.8-82.2 21.8-20.4 14.4-45.4 13.9-46 53.3 52.2 15.1 103.6-7.1 131z" fill="url(#Y)"/><linearGradient id="Z" gradientUnits="userSpaceOnUse" x1="495.421" y1="201.902" x2="581.693" y2="115.63"><stop offset="0" stop-color="#40d5e6"/><stop offset="1" stop-color="#57f"/></linearGradient><path d="M510.6 211.9c-.6-.1-1.2-.3-1.7-.5.8-9.5 3.2-28.1 10.4-39.9 3.4-5.6 7.7-10.9 12.2-16.6 8.5-10.7 17.4-21.9 21.5-35.7l1.7.5c-4.2 14.2-13.2 25.4-21.8 36.3-4.5 5.6-8.7 11-12.1 16.4-7 11.4-9.4 30.2-10.2 39.5z" fill="url(#Z)"/><linearGradient id="a" gradientUnits="userSpaceOnUse" x1="144.568" y1="259.046" x2="528.018" y2="259.046"><stop offset="0" stop-color="#ffc05c"/><stop offset="1" stop-color="#ff3857"/></linearGradient><path d="M508.5 378.1H164.1c-10.8 0-19.5-8.7-19.5-19.5v-199c0-10.8 8.7-19.5 19.5-19.5h344.4c10.8 0 19.5 8.7 19.5 19.5v199c0 10.7-8.7 19.5-19.5 19.5z" fill="url(#a)"/><path d="M462.5 222.1c-17.4 0-31.6-14.2-31.6-31.6s14.2-31.6 31.6-31.6 31.6 14.2 31.6 31.6c-.1 17.4-14.2 31.6-31.6 31.6zm0-58.5c-14.8 0-26.9 12.1-26.9 26.9s12.1 26.9 26.9 26.9 26.9-12.1 26.9-26.9c0-14.9-12.1-26.9-26.9-26.9z" fill="#ff7759"/><path d="M187.5 323.6c-1.7 0-3.3-.3-4.8-.9s-2.8-1.4-3.9-2.4-2-2.2-2.6-3.6-1-2.8-1-4.4c0-1.5.3-3 1-4.4.6-1.4 1.5-2.6 2.6-3.6s2.4-1.8 3.9-2.4 3.1-.9 4.8-.9 3.3.3 4.8.9 2.8 1.4 3.9 2.4 2 2.2 2.6 3.6 1 2.8 1 4.4-.3 3.1-1 4.4c-.6 1.4-1.5 2.5-2.6 3.6-1.1 1-2.4 1.8-3.9 2.4s-3.1.9-4.8.9zm-8.1 27.5l20.9-24.4 19.3-25.4 4.5 4-20.3 24-20 25.8-4.4-4zm8.1-32.5c.7 0 1.4-.2 2-.5s1.2-.8 1.7-1.4.9-1.2 1.2-2 .4-1.6.4-2.4c0-1.7-.5-3.2-1.6-4.4-1-1.2-2.3-1.8-3.7-1.8-.7 0-1.4.2-2 .5s-1.2.8-1.7 1.4-.9 1.2-1.2 2c-.3.7-.4 1.5-.4 2.4 0 1.7.5 3.2 1.6 4.5 1 1.1 2.3 1.7 3.7 1.7zm28.7 36.7c-1.7 0-3.3-.3-4.8-.9s-2.8-1.4-3.9-2.4-2-2.2-2.6-3.5c-.6-1.4-1-2.8-1-4.4s.3-3.1 1-4.4c.6-1.4 1.5-2.5 2.6-3.6 1.1-1 2.4-1.8 3.9-2.4s3.1-.9 4.8-.9 3.3.3 4.8.9 2.8 1.4 3.9 2.4 2 2.2 2.6 3.6a10.82 10.82 0 0 1 .9 4.4c0 1.6-.3 3.1-.9 4.4-.6 1.4-1.5 2.5-2.6 3.5s-2.4 1.8-3.9 2.4-3.1.9-4.8.9zm0-5c.7 0 1.4-.2 2-.5s1.2-.8 1.7-1.4.9-1.2 1.2-2c.3-.7.4-1.5.4-2.4s-.1-1.7-.4-2.5-.7-1.4-1.2-2-1-1-1.7-1.3c-.6-.3-1.3-.5-2-.5s-1.4.2-2 .5-1.2.8-1.7 1.4-.9 1.2-1.2 2-.4 1.6-.4 2.4c0 1.7.5 3.2 1.6 4.4 1 1.3 2.2 1.9 3.7 1.9z" fill="#ff6a59"/><linearGradient id="b" gradientUnits="userSpaceOnUse" x1="88.794" y1="178.149" x2="413.557" y2="178.149"><stop offset="0" stop-color="#ffc05c"/><stop offset="1" stop-color="#ff3857"/></linearGradient><path d="M167 170.9h203.4v14.6H167z" fill="url(#b)"/><linearGradient id="c" gradientUnits="userSpaceOnUse" x1="88.794" y1="160.788" x2="413.557" y2="160.788"><stop offset="0" stop-color="#ffc05c"/><stop offset="1" stop-color="#ff3857"/></linearGradient><path d="M167 158.9h203.4v3.8H167z" fill="url(#c)"/><linearGradient id="d" gradientUnits="userSpaceOnUse" x1="88.794" y1="200.754" x2="413.557" y2="200.754"><stop offset="0" stop-color="#ffc05c"/><stop offset="1" stop-color="#ff3857"/></linearGradient><path d="M167 193.5h104v14.6H167z" fill="url(#d)"/><linearGradient id="e" gradientUnits="userSpaceOnUse" x1="484.326" y1="300.206" x2="201.454" y2="300.206"><stop offset="0" stop-color="#edf4ff"/><stop offset="1" stop-color="#edfffe"/></linearGradient><path d="M401 399.7H271.6c-8.2 0-14.9-6.7-14.9-14.9V215.6c0-8.2 6.7-14.9 14.9-14.9H401c8.2 0 14.9 6.7 14.9 14.9v169.1c0 8.3-6.7 15-14.9 15z" opacity=".95" fill="url(#e)"/><path d="M376.6 365.3c-9.7 0-17.5-7.9-17.5-17.5 0-9.7 7.9-17.5 17.5-17.5 9.7 0 17.5 7.9 17.5 17.5s-7.8 17.5-17.5 17.5zm0-31.7c-7.8 0-14.1 6.3-14.1 14.1s6.3 14.1 14.1 14.1 14.1-6.3 14.1-14.1c0-7.7-6.3-14.1-14.1-14.1zm-1.1 21.1l-8-8 2.4-2.4 5.6 5.6 7.8-7.8 2.4 2.4z" fill="#ff5458"/><path d="M425.3 340h5.1v23.5h-5.1zm7.5 0h2.5v23.5h-2.5zm5 0h4.6v23.5h-4.6zm7.2 0h2.8v23.5H445zm4.7.1h1.3v23.5h-1.3zm3.2-.1h4.4v23.5h-4.4zm6.2 0h3.4v23.5h-3.4zm5 0h1.7v23.5h-1.7zm3.6 0h4.8v23.5h-4.8zm6 0h3.6v23.5h-3.6zm5.1 0h1.8v23.5h-1.8zm3.2 0h2.5v23.5H482zm4.2.1h7.8v23.5h-7.8z" fill="#ff7759"/><linearGradient id="f" gradientUnits="userSpaceOnUse" x1="336.294" y1="128.097" x2="336.294" y2="79.57"><stop offset="0" stop-color="#7c3596"/><stop offset="1" stop-color="#3098ff"/></linearGradient><path d="M175.9 79.6v43.1s8.6 12.2 18.9 0h18.9s8.6 12.2 18.9 0h18.9s8.6 12.2 18.9 0h18.9s8.6 12.2 18.9 0h18.9s8.6 12.2 18.9 0h18.9s8.6 12.2 18.9 0h18.9s8.6 12.2 18.9 0H440s8.6 12.2 18.9 0h18.9s8.6 12.2 18.9 0V79.6H175.9z" fill="url(#f)"/><g fill="#38d2e0"><use xlink:href="#h"/><use xlink:href="#h" x="37.7"/><use xlink:href="#h" x="75.5"/><path d="M308 122.7s8.6 12.2 18.9 0V79.6H308v43.1z"/><use xlink:href="#h" x="150.9"/><use xlink:href="#h" x="188.7"/><use xlink:href="#h" x="226.4"/><path d="M458.9 79.6v43.1s8.6 12.2 18.9 0V79.6h-18.9z"/></g><path d="M366 230.3l-2.7 11.7h-68.1v2.7l9.8 45.5v1.3h5.6l1.4 5.9h2c-1.9.7-3.3 2.5-3.3 4.7 0 2.7 2.2 5 5 5 2.7 0 5-2.2 5-5 0-2.1-1.4-4-3.3-4.7h28c-1.9.7-3.3 2.5-3.3 4.7 0 2.7 2.2 5 5 5 2.7 0 5-2.2 5-5 0-2.1-1.4-4-3.3-4.7h2.2v-2.1h-37.4l-.9-3.8H355v-1.3l8-37.2 4.7-20.5h28.6v-2.1H366zm-47.4 71.8c0 1.6-1.3 2.9-2.9 2.9s-2.9-1.3-2.9-2.9 1.3-2.9 2.9-2.9 2.9 1.3 2.9 2.9zm31.4 0c0 1.6-1.3 2.9-2.9 2.9s-2.9-1.3-2.9-2.9 1.3-2.9 2.9-2.9 2.9 1.3 2.9 2.9zm-28.9-41.8h17.8l-.9 13h-16l-.9-13zm-1.4 13h-15.9l-2.8-13h17.8l.9 13zm19.4-15.6h-18.2l-.9-13h20l-.9 13zm3.3-13h20l-2.8 13h-18.2l1-13zm-4.6 31.2l-.9 13h-13.7l-.9-13h15.5zm2.3 0h15.5l-2.8 13h-13.7l1-13zm16.1-2.6h-15.9l.9-13H359l-2.7 12.7-.1.3zm-38.6-28.6l.9 13h-18.2l-2.8-13h20.1zm-13.3 31.2h15.5l.9 13H307l-2.7-13zm24 101.1h16v2h-16zm0-164.9h16v2h-16zm-48 126.7h39.4v5.3h-39.4zm0 12.6h58.4v5.3h-58.4z" fill="#ff5458"/><path d="M432.8 253.3H494v20.1h-61.2zm0 25.7H494v12h-61.2z" fill="#ff6a59"/><path d="M460.6 343.8s-.8 1.3-.9 2.4c-.1.8-.8 2.1-1.1 2.8s-1.3 3.9-1.3 4.7c0 .3.7 2.5.6 3.1-.1.7-.5 2 .1 2.1s1.3-1 1.3-1-.1.6.5.9c1 .5 1.5.1 1.5.1s.4.7.8.8c1 .2 1.5-.2 1.5-.2s.5.4 1.2.4c.9 0 1.3-.8 1.3-.8s1.1.2 1.5-.3c.3-.5.3-1.1.4-1.6s0-4.9-1.5-8c-1.5-3.2.4-6.2.4-6.2l-6.3.8z" class="AK"/><path d="M459.1 357.6s-.1-3.9.9-4.8c1-.8 1.2.6 1.2.6s-.1-1.4 1-1.6 1.2 1.5 1.2 1.5.2-1.1 1.4-.9.9 1.6.9 1.6 1.1-1.4 1.9-.1c1.2 2.2 0 4.8 0 4.8s-.4.6-1.5.3c0 0-.8 1.5-2.5.4 0 0-1.7 1-2.4-.6.1.1-1.8 1-2.1-1.2z" class="AN"/><path d="M447.2 287.1l9 30.7c.7 2.6 2.4 27.4 2.7 28.4s8.9 2.4 8.9 2.4l-1.1-32.7c-.1-1.7-9.4-36.4-12.1-37.6-2-.9-3.1-.2-5.7 1.7-3.6 2.7-1.7 7.1-1.7 7.1z" class="AM"/><path d="M452.7 440.5l.7 4.9c.1.6 6.8-.4 6.8-.4l.5-5.1c.1 0-7.2 0-8 .6z" fill="#424773"/><path d="M453.3 444.8s-2.1 2.6-4.2 3.7-5.3 1.6-6.5 2.7c-.9.8-3.2 4.4 5.4 4.4 8.6-.1 12.7.5 13.7-.9.9-1.4-1.3-10.2-1.3-10.2s-2.2.8-7.1.3z" fill="#292c47"/><path d="M404.3 440.5l.7 4.9c.1.6 6.8-.4 6.8-.4l.5-5.1s-7.2 0-8 .6z" fill="#424773"/><g fill="#292c47"><path d="M404.9 444.8s-2.1 2.6-4.2 3.7-9.7 2-10.9 3.2c-.9.8-2.4 4.2 9.7 3.9 8.6-.2 12.7.5 13.7-.9.9-1.4-1.3-10.2-1.3-10.2s-2 .8-7 .3zm42.2-113.9s6.3 10.1 5.9 19.2c-.5 9.1 2.3 19.1 3.3 28.6 1.1 10.6 5.4 35.8 5.6 41.4.2 5.7-.7 23.8-.7 23.8l-8.7.2s-7.3-43.9-9.2-48.4-11.3-36.5-11.6-40c-.4-3.6 15.4-24.8 15.4-24.8z"/><path d="M413.7 332.3l-5.4 30.6c-.6 5.6-1.1 27-1.4 30.5l-3.8 50.8h11.1s8.5-30.6 8.5-45.1 6.6-31.5 10.9-41.1 14-9.8 16.6-27.5c.1-.1-33-3.9-36.5 1.8z"/></g><g class="AK"><path d="M436.5 246.1s-8.5-3.2-12.5 3.3c-3.9 6.5-3.6 19.5.7 21.1s10.7.8 12.9-3.3 4.2-9.9 4.1-13.8c0-4-3-6.2-5.2-7.3z"/><path d="M425.7 270.8s.4 2.3-.2 3.4 11 1.2 11 1.2.9-6.2 2.7-11.4-13.5 6.8-13.5 6.8z"/></g><path d="M439.3 264s-.8 1.3-4.1.8-7.3-4.9-8.6-5.4c-1.4-.5-1.4-1.3-1.4-1.3l-.9 1.3-1.5.1s1.3-3.9-.7-5.5 2.1-12.6 12.6-8.9c0 0 8.1 2.2 7.8 6.8s-1.4 9.8-3.2 12.1z" class="AM"/><path d="M424.8 274.1s0-2.2 1-2.4 10.8-1.2 12-.7v2.5s-2.3 1.5-13 .6z" fill="#e2d2ca"/><path d="M425.4 256.5c.2-.8 2.1-3 2.9-.6s-1.1 5.5-2.2 5.3c-1.1-.3-1.2-2.7-.7-4.7z" class="AK"/><path d="M385.7 299.7c-.1 0-.1 0 0 0zm53.2-52.8s10.9.9.3 17.1l-.3-17.1z" class="AM"/><path d="M364.9 250.2c.3-1.1 1.5-1.4 1.5-1.4.5-.7 1.7-1.1 1.7-1.1 0-.1 0-.1.1-.1-.8-.8-3-2.4-3.1-2.7-.2-.4-.1-.4.3-.6s4 2.2 5.2 3c.3.2.5.4.6.4.3.3 1 .5 1.6 1.1l.2.2c.6.8 2 7 2 7l-2.5 1.1-2.5 2.1-3.6-3.1c-.7-.7-1.1-1.6-1.3-2 0-.1-.1-.2-.2-.4-.3-.5-.8-1.1-.8-1.1-.3-.4-.4-1.2-.4-1.2 0-.8 1.2-1.2 1.2-1.2z" fill="#efaa88"/><path d="M408.5 277.3c6.8-.9 16.3-3.3 16.3-3.3l13.1-.5s12 2.6 16.7 4.8c.4.2.4 10.7 1.7 13.4l-3.9 8.3s-2.3 16.4-2.7 23.6c-.2 3.3 4.7 31.3 4.7 31.3s-5.2 1.5-14.1 2.5-31.2-.4-31.3-1.4c-.1-1.1 4.3-39.2 4.5-41.2.3-3-1-19.1-1-19.1-2.1-1.6-20.1-10-25.1-14.4-1.3-1.2-6.9-6.6-8.5-8.5-5.6-6.6-10.2-12.3-10.8-13.5-.6-.7 6.1-4.4 6.7-4.6.5-.2 8.1 9.6 11 12.8 1.3 1.4 6.7 5.3 6.7 5.3s11.8 4.8 16 4.5z" class="AM"/><path d="M197 272.2l1.8-3.4c.3-.4 1.5-1.1 3.1-1.7 1.5-.6 3.9-.7 4.1-.5s.5.2.8.9c.2.7 0 1.4 0 1.4s.6.7.4 1.6c0 0 .7.6.2 1.6 0 0 .7.7.3 1.3 0 0-1.3.6-1.7 1s-3.2 1.5-6 2.2c0-.1-2.9-.3-3-4.4z" class="AK"/><path d="M201.6 271s-.2 1.7-.4 2.1c-.3.4 3.2 1.9 3.2 1.9s-.8-3.8-2.8-4z" fill="#cf8c6c"/><path d="M241.5 313.8l-41.7 5.4-7.1-38.1 43.6-7.5z" fill="#eb4747"/><g class="AL"><path d="M220.4 277.4c-.1-4-1.6-8.8-4.7-11.4-2.3-1.9-5.1-2.3-8-1.8-6.8 1.1-7.2 8.2-5.8 13.1l18.5.1zm-17.9-1c-1.2-5.3-.1-10.5 5.3-11.4 2.6-.4 5.2-.1 7.3 1.6 2.7 2.2 4 6.3 4.3 9.8h-16.9z"/><path d="M222 277.4c-.1-4-1.9-8.8-5-11.4-2.3-1.9-5.1-2.3-8-1.8-6.8 1.1-6 8.2-4.6 13.1l17.6.1zm-16.9-1c-1.2-5.3-1.4-10.5 4.1-11.4 2.6-.4 5.2-.1 7.3 1.6 2.7 2.2 4.6 6.3 4.9 9.8h-16.3z"/></g><path d="M235 319.9l-48.6-3.7 3.9-39.4 45.2-1.3z" fill="#9e4cc7"/><path d="M99.2 298.1l.4-3.8c0-.5-.6-1.8-1.6-3.1-.9-1.4-2.8-2.8-3-2.8-.3 0-.6-.1-1.2.3s-.8 1.1-.8 1.1-1 .2-1.3 1.1c0 0-.9.2-1 1.2 0 0-.9.2-1 .9 0 0 .7 1.2.8 1.8.1.5 1.7 3 3.6 5.2.1 0 2.6 1.4 5.1-1.9z" class="AK"/><path d="M104.5 302.7c.4-3.1 0-7-2-9.4-1.4-1.6-3.2-2.2-5.2-2.3-2.8-.1-5.4.7-7.3 2.8-2.6 2.8-3.3 7.6-2.9 11.4l17.4-2.5zm-16.7 1.5c-.2-3.3.5-7.3 2.8-9.8 1.7-1.9 4.1-2.6 6.7-2.5 1.8 0 3.4.6 4.6 2 1.7 2 2.2 5.4 1.9 8.1l-16 2.2z" class="AL"/><path d="M68.4 347.6l3.2-41 7.1 40.5-4.9-.9z" class="AO"/><path d="M78.7 347.1l42.3-7.5-6.9-39.4-42.6 6.1z" fill="#5b83c2"/><path d="M124 311.5c.7 2 0 4.6-.8 6.5l.8.1c.9-2 1.5-4.6.8-6.7l-.8.1z" class="AL"/><path d="M92.8 348.6l34.7 4.6 5.9-31.8-36.3-6.2z" fill="#eb4747"/><path d="M85.7 347.6l11.4-32.4-4.3 33.2-3.7-1.3z" class="AP"/><path d="M124.7 310.6c1.2 2.4.6 5.8.4 6.7l.7.3c.2-1 1.1-5-.8-7.9l-.3.9z" class="AL"/><path d="M89.1 352.5l7.7-35.1 1.3 36.1-4.2-1.6z" fill="#b06e2a"/><path d="M94.2 300s2.6 2.3 3.9 2.3 2-3.6 2-3.6l-1.2-2.3-4.7 3.6zm101-25.8s1.3-1.2 1.9-2.3 3.2 4.5 3.2 4.5-3.2.1-4.6 1.1c-1.5 1.1-.5-3.3-.5-3.3z" class="AK"/><path d="M205.6 266.7s-3.8 1.6-3.7 2.2c.2.6.6.8.6.8l-1.3 1.4s-.3 1.4 1.3 1.3c0 0-.4 1.3 1.1 1 0 0 .1 1 .8 1s3.2-1.1 3.2-1.1.4-.5-.2-1.3c0 0 .5-.9-.2-1.6 0 0 .3-.8-.4-1.6 0 0 .5-1.7-.9-2.3.1.1-.2.1-.3.2z" class="AN"/><path d="M198.9 268.7s2.8.2 4.3 1c.3.2.6.4.6.8s-.6.8-1.9.8c-1.2 0-2.8.5-2.8.5s-1.2-.4-.2-3.1z" class="AK"/><path d="M96.1 294.5s-.8 1.5-.9 2c0 .5-3.7-.3-3.7-.3s2.8-2.7 4.6-1.7z" fill="#cf8c6c"/><path d="M95.3 288.8s2.2 3.5 1.7 3.9-1 .3-1 .3l.3 1.9s-.5 1.3-1.8.4c0 0-.4 1.3-1.5.2 0 0-.6.7-1.2.3s-2-2.7-2-2.7-.1-.6.9-1c0 0 .1-1 1.1-1.2 0 0 .2-.8 1.2-1 0 0 .6-1.7 2-1.4 0-.1.2.1.3.3z" class="AN"/><path d="M99.5 294.2s-2.5-1.4-4.1-1.6c-.4 0-.8 0-.9.3-.2.3.1 1 1.1 1.7s2.1 2 2.1 2 1.2.4 1.8-2.4z" class="AK"/><path d="M145.1 447.5c-2 .6-2.6 4-4.3 5s-9.9 1.7-10.2-.9 3.5-4.9 5.1-6.2c1.7-1.3 5.5-5.5 6.3-7.2 0 0 .7 1.1 2.7.7 2-.3 2.4-.9 2.4-.9-.1 2 .6 3.4.8 4.2.7 2.7-.8 4.7-2.8 5.3zm13.4.4c-1.5 1.4-1.8 3.6-3.5 4.6-.5.3-1.5.6-2.6.8-2.1.4-4.7.4-6-.3-.4-.3-.7-.6-.8-1.1-.3-2.6 3.5-5.5 5.2-6.8 1-.8 2.1-2.6 3-4.3l1.3-2.7s.1.2.3.4c.3.2 1 .5 2.2.3 1.6-.3 2.2-.7 2.4-.9h0c.3 1.6.9 3.3 1.1 4 .8 2.7-1.1 4.7-2.6 6z" class="AO"/><path d="M144 244.2s6.4-.7 8.8 5.6c2.3 6.2 4.5 8.3 4.8 11.5 1.1 13.2 7.3 10.2 5.5 17.9-1.7 7.6-2.9 8.8-2.9 8.8l-14.8-2.9h-15s5.9-2.9 4.5-9.1c-1.3-6.2-4.5-16.4-2.7-23.4 1.9-7 7.9-7.9 11.8-8.4z" fill="#223247"/><path d="M98.1 353.5l37.4-1.3.7-34.9H96.8z" fill="#faa146"/><path d="M251.3 311l-15-37.4 5.2 40.2 4.3-2.5z" class="AP"/><path d="M245.9 318.7l-10.4-43.2-.5 44.4 5.1-1.9z" fill="#5b2c73"/><path d="M133.3 333s-5.4 18.9-6.4 23.8c-.9 4.8-3.6 28.2-3.9 32.2s8.9 22.6 9.4 24c1.9 5.2 9.8 24.1 9.8 24.1s5.1 3 4.5-1.4c-1.7-13.5-2.5-16.8-3.8-23.8-2.7-15.3-8.2-17.3-7.3-19.6 8.5-22.6 10.2-37.9 11.4-39.3 1.1-1.3 1.3.7 2 3.6s-.3 23.2.9 31c.7 4.2 2.1 13.8 2.6 19.3l3 30.9s.3.9 4.1-1.2c.6-.3 3.6-22.5 3.7-29s-2.8-7.5-.5-20.1c5-27.1 4.3-31.8-1.5-51.3-14.1-47.8-28-3.2-28-3.2z" class="AK"/><path d="M199.6 277.5c-.2-.2-14 10.3-15.5 11.2-3 1.7-6.2 1.6-9.5 1.8-3.7.2-8-.2-11.7.6-1.9.4-2.1.9-3.1 2.9-2.7 5.5-3.6 12.4-3.9 18.5-.4 6.3 2.1 10.7 4.6 16.3.9 1.9 2.1 3.9.4 5.6-1.5 1.6-4.5 1.9-6.5 2.1-4.9.6-12.4 1-17.1-.9-5.8-2.4-4.7-9.6-5.3-14.7-.4-3.4-2-8.5-3-11.7-.9-3.2-1-4.6-.8-8-1.8 5.1-3.3 13.8-8.1 17-3.7 2.5-7.1-.9-9.8-3.2L95 301.7l3.3-3c.4-.3.4-.4.8-.7 1-.8.8-1 1.8-.4.7.4 2.4 2.1 3 2.6 1.8 1.7 3.5 2.8 5.3 4.5 1.6 1.5 4.4 5 6.8 3.7 1.9-.9 2.4-4.8 3.1-6.5 1.8-4.8 3.6-9.6 5.8-14.2 2.3-5 7.4-7.6 12.4-9.6 4.3-1.7 10-1.4 14.4-.3 3.1.8 4.1.8 7.2 1.7 2.9.8 5.6 1.8 8.6 2.4 3.4.7 6.9 1 10.4 1 2.8 0 3.9-.4 6.2-2 3.1-2.2 7.7-5.9 11.1-7.6 2-1.1 2.7 2.5 4.4 4.2z" fill="#f0ddd5"/><g class="AK"><path d="M148.4 270.1s-.5 6.4.7 8.4c1.2 1.9-1.1 4.5-5.8 3.6s-4.5-3.6-4.5-3.6 1.3-4 .9-7.2c-.3-3.1 8.7-1.2 8.7-1.2z"/><path d="M151.5 277.9s-4.3 10-9.8 12.1c0 0-5.5-4.8-4-12 0-.1 7.1-3.7 13.8-.1zm-6.7-30.1s8.5 1.2 7.3 13.8c-1.3 12.6-8.8 11.6-9.3 11.6s-7.6.3-8.2-15.1c.1.1-.2-11.3 10.2-10.3z"/></g><path d="M143.9 252.4l5.8 6.3c1.9 2.1 2.1 6.2 2.1 6.2s3.1-3.8 1.8-8.3c-1.3-4.4-4.4-13.1-12.2-10.4s-8.1 14.3-7.2 20.1c0 .1 3.5-12.7 9.7-13.9z" fill="#223247"/><path d="M140.6 272.7s3.7 1.8 7.4-1.1c0 0-1.4 2.4-3.9 2.5-2.6.2-3.5-1.4-3.5-1.4z" fill="#a77860"/><g class="AL"><path d="M117.1 307.3c-.4.8-1.2 1.2-1.2 1.2-3.9 2.1-4.6 7.1-4.7 8.8h-.8c.7-9.2 6.7-10 6.7-10z"/><path d="M116.9 307.3s-6.3.3-8.1 9.9l.6.1s1.2-7 6.3-8.9c0-.1.7-.4 1.2-1.1z"/></g><path d="M161.5 331.3s8.6 17.9 2.8 54.1l-44-3.5 12.3-51.8c.4-3.1 28.9 1.2 28.9 1.2z" fill="#f0ddd5"/><path d="M142.1 436.7s2.5 1.6 4.7-.5l.2 1.9s-3.9 3.5-4.9-.3v-1.1zm14.1-.3s1.5 1.3 3.7-.7l.3 2.2s-3.8 3.9-4.8.1l.8-1.6z" class="AK"/><path d="M142.1 437.8s-2 2.4-1.8 2.8 4.6 1.3 5.3.3c.7-.9 1.5-2.9 1.5-2.9s-3.9 1.7-5-.2zm13.4-.1s-1.9 2.7-1.7 3.1 4.1 1 4.8.1 1.6-2.9 1.6-2.9-3.6 1.7-4.7-.3z" class="AO"/><path d="M132.4 327.5s10.4 3.8 25.3-4.6l1.3 2.9c0 0-13.6 8.4-26.3 4.3 0 0-.4-2-.3-2.6z" fill="#ff4d4d"/><path d="M129.5 292.5c-1.2 3.1-1.3 8.7-1.3 8.7l-1 3.2c-.2-8.3 2.3-11.9 2.3-11.9z" class="AP"/><path d="M143.1 278.6c-.5 0-1-.1-1.5-.1-1.7-.3-2.4-1.1-2.5-1.2l.2-.8s1 .9 2.5 1.1c2 .4 4.3-.2 6.6-1.6l.3.8c-2.1 1.4-4.1 1.8-5.6 1.8z" fill="#c43b3b"/><path d="M169.6 144.1l-20 3.7c-1.1.2-2.2.8-2.9 1.7l-45.3 52.4c-1.8 2.1-1.6 5.4.5 7.2l19.1 16.5c2.1 1.8 5.4 1.6 7.2-.5l45.3-52.4c.8-.9 1.2-2 1.2-3.1l.8-20.3c.3-3.3-2.6-5.8-5.9-5.2zm2.9 6.9c-1 1.1-2.7 1.3-3.9.3-1.1-1-1.3-2.7-.3-3.9s2.7-1.3 3.9-.3c1.2 1.1 1.3 2.8.3 3.9z" fill="#eeecf0"/><path d="M130.7 205.8c-.7.8-1.4 1.4-2.3 1.9s-1.8.8-2.7.9l-.7-2.9h.7c.3-.1.7-.2 1.1-.3l1.2-.6c.4-.3.8-.6 1.2-1 .5-.6.8-1.2.8-1.7s-.2-.9-.6-1.3c-.2-.2-.4-.3-.7-.3-.2 0-.5 0-.8.2-.3.1-.6.3-1 .5l-1.1.7c-.9.6-1.7.9-2.4 1s-1.4-.1-2-.7-1.1-1.2-1.4-1.9-.4-1.4-.4-2.1.2-1.5.5-2.2.7-1.4 1.3-2c.6-.7 1.3-1.3 2.1-1.6.7-.4 1.4-.6 2.1-.7l.6 2.8h-.5c-.3 0-.5.1-.9.3-.3.1-.6.3-1 .5-.3.2-.6.5-.9.8-.5.6-.8 1.2-.8 1.7s.2 1 .7 1.4c.2.2.4.2.6.3.2 0 .4 0 .7-.1s.5-.2.8-.4l1-.6c.5-.3.9-.6 1.4-.8.4-.2.9-.3 1.3-.4s.8 0 1.2.1.8.3 1.2.7c.7.6 1.2 1.2 1.4 1.9a3.86 3.86 0 0 1 .3 2.1 8.3 8.3 0 0 1-.6 2.1l-1.4 1.7zm7.4-8.5c-.4.5-.8.8-1.3 1s-1 .3-1.5.3-1-.1-1.6-.4c-.5-.2-1-.5-1.5-.9-.7-.6-1.2-1.3-1.6-2-.4-.8-.7-1.6-.8-2.4s-.1-1.6.1-2.4.5-1.5 1-2.1 1-.9 1.7-1.1c.6-.1 1.2-.1 1.8.2l-1.1-1.5 1.8-2.1 4.7 6.1c.1.1.2.2.2.3.2.2.4.2.7-.1l1.4 1.9-.3.6c-.1.2-.2.3-.3.4-.3.4-.6.6-1 .7-.3.1-.7 0-1-.3-.1-.1-.3-.3-.5-.6.2.8.2 1.6 0 2.4-.1.8-.4 1.5-.9 2zm-.9-2.4c.2-.2.3-.4.4-.7s.2-.5.2-.8v-.9c0-.3-.1-.6-.2-.9l-1.6-2.1c-.5-.3-1-.5-1.6-.4-.6 0-1 .3-1.3.7-.3.3-.5.7-.6 1.2s-.1.9 0 1.4.2.9.5 1.4c.2.4.5.8.9 1.2a2.34 2.34 0 0 0 1.7.7 2.72 2.72 0 0 0 1.6-.8zm8.2-6c-.5.5-.9.8-1.4.9s-1-.1-1.4-.5l-.6-.6-7.7-10.2 1.8-2.1 7.1 9.4c0 .1.1.1.1.2l.1.1c.4.4.8.3 1.2-.1.1-.1.2-.3.3-.4.1-.2.2-.4.2-.6l1.5 1.4c-.1.4-.3.8-.6 1.3-.1.5-.3.9-.6 1.2zm5.6-6.4c-.4.5-.9.9-1.5 1.2-.5.3-1.1.4-1.6.4-.6 0-1.1-.1-1.7-.3-.5-.2-1.1-.5-1.6-1-.7-.6-1.2-1.3-1.6-2.1s-.6-1.6-.7-2.5 0-1.7.3-2.6.7-1.7 1.3-2.4c.8-.9 1.6-1.4 2.4-1.6s1.6 0 2.4.7c1.7 1.5 1.3 3.8-1.4 7-.2.2-.3.4-.5.6l-.6.6.2.2c.5.5 1.1.7 1.7.8.6 0 1.1-.2 1.5-.7.4-.4.6-.9.7-1.4s.1-1.1-.1-1.6l1.9-1.2c.1.5.2 1 .2 1.5s-.1 1.1-.2 1.6-.3 1-.5 1.5c0 .4-.3.9-.6 1.3zm-5.7-7.5c-.3.3-.4.6-.6 1-.1.4-.2.7-.2 1.1s.1.7.2 1.1.3.7.5 1.1c.2-.2.3-.3.4-.5s.3-.3.4-.5c.4-.5.8-.9 1-1.3s.4-.7.5-1 .1-.6 0-.8-.2-.4-.4-.6c-.3-.3-.6-.3-1-.2-.1 0-.4.2-.8.6z" fill="#78c2ff"/><path d="M172.3 147.5l-.2-.6s1.5-.4 3.6-1.6l.3.6c-2.1 1.2-3.6 1.6-3.7 1.6zm244.3 53.1l-.6-.2 2.4-7.6.6.2-2.4 7.6zm4.5-15.3l-.6-.2 1.7-7.7.7.1-1.8 7.8zm3-15.6l-.7-.1.6-7.9h.7l-.6 8zm-.4-15.9c-.3-2.7-.8-5.3-1.5-7.7l.6-.2c.7 2.5 1.2 5.1 1.5 7.9h-.6zm-241.6-13.2l-.5-.4c1.6-2 2.8-4.4 3.5-6.9l.6.2c-.7 2.6-1.9 5.1-3.6 7.1zm237.3-1.9c-1.2-2.3-2.7-4.5-4.3-6.5l.5-.4c1.7 2 3.2 4.3 4.4 6.7l-.6.2zm-10-12a37.04 37.04 0 0 0-6.6-4.2l.3-.6c2.4 1.3 4.7 2.7 6.7 4.3l-.4.5zm-222.7-1.2h-.7l.7-8 .7.1c-.4 2.8-.6 5.6-.7 7.9zm208.8-6.2l-7.6-2.2.2-.6c2.7.6 5.3 1.4 7.7 2.2l-.3.6zm-15.4-3.7l-7.9-.9.1-.7 7.9.9-.1.7zm-15.8-1.5l-7.9-1 .1-.7 7.9 1-.1.7zm-15.7-2.5l-7.7-2.1.2-.6c2.4.8 4.9 1.5 7.6 2.1l-.1.6zm-159.8-1.8l-.6-.1 2.1-7.7.6.2c-.8 2.4-1.5 5-2.1 7.6zm144.7-3.2c-2.4-1.1-4.7-2.4-7-3.9l.4-.6c2.2 1.4 4.5 2.7 6.9 3.8l-.3.7zM320.1 98l-6-5.2.4-.5 6 5.2-.4.5zm-126.3-3.2l-.6-.3c1.1-2.5 2.3-4.9 3.6-7.1l.6.3c-1.3 2.2-2.5 4.6-3.6 7.1zm114.5-7.4l-6.1-5.1.4-.5 6.1 5.1-.4.5zm-106.5-6.2l-.5-.4c1.7-2.1 3.5-4.1 5.4-5.9l.5.5c-1.9 1.7-3.7 3.7-5.4 5.8zm94-3.4c-2.2-1.4-4.5-2.7-6.9-3.9l.3-.6c2.4 1.2 4.7 2.5 6.9 4l-.3.5zm-14.1-7.2l-7.4-2.7.2-.6L282 70l-.3.6zm-68.4-.2l-.4-.6c2.2-1.5 4.6-2.8 7-3.9l.3.6c-2.4 1.2-4.7 2.4-6.9 3.9zm53.4-4.7l-6.3-1.5-1.4-.3.1-.7 1.4.3 6.4 1.5-.2.7zM227.6 64l-.2-.6c2.5-.7 5.1-1.2 7.8-1.5l.1.7c-2.6.2-5.2.7-7.7 1.4zm23.5-1.4l-7.9-.5v-.7c2.6 0 5.3.2 8 .5l-.1.7zm161.3 149.6l-.6-.2 1.4-3.7.6.2-1.4 3.7z" fill="#e6e6e6"/><path d="M575.3 213.4l21-12.1 20.1-13.2 2.2 4-20.5 11.9-20.6 13.3-2.2-3.9zm12.6-17.5c-1.2-.4-2.3-1-3.2-1.8s-1.6-1.7-2.1-2.7-.8-2.1-.9-3.2 0-2.3.4-3.4 1-2 1.8-2.9c.8-.8 1.7-1.4 2.7-1.9 1-.4 2.1-.7 3.3-.7s2.4.1 3.6.6c1.2.4 2.3 1 3.2 1.8s1.6 1.7 2.2 2.7c.5 1 .8 2 .9 3.2.1 1.1 0 2.3-.4 3.3-.4 1.1-1 2.1-1.8 2.9s-1.7 1.4-2.7 1.9c-1 .4-2.1.7-3.4.7-1.2.1-2.4-.1-3.6-.5zm1.2-3.5c.5.2 1.1.2 1.6.1s1-.3 1.5-.6.9-.7 1.3-1.1c.4-.5.7-1 .9-1.6.4-1.2.4-2.4 0-3.5s-1.2-1.9-2.2-2.2c-.5-.2-1.1-.2-1.6-.1s-1 .3-1.5.6-.9.6-1.3 1.1-.7 1-.9 1.6a5.55 5.55 0 0 0 0 3.6c.5 1 1.2 1.7 2.2 2.1zm11.2 33.2c-1.2-.4-2.3-1-3.2-1.8s-1.6-1.7-2.1-2.7-.8-2-1-3.2c-.1-1.1 0-2.3.4-3.4s1-2.1 1.8-2.9 1.7-1.4 2.7-1.9c1-.4 2.1-.7 3.3-.7s2.4.1 3.6.6c1.2.4 2.3 1 3.2 1.8s1.6 1.7 2.2 2.7c.5 1 .9 2.1.9 3.2.1 1.1-.1 2.2-.5 3.4-.4 1.1-1 2.1-1.8 2.9s-1.7 1.4-2.7 1.8-2.2.7-3.4.7c-1 .1-2.2-.1-3.4-.5zm1.2-3.5c.5.2 1.1.2 1.6.1s1-.3 1.5-.6.9-.6 1.3-1.1.7-1 .9-1.6a6.28 6.28 0 0 0 .3-1.9c0-.6-.1-1.2-.3-1.7s-.5-1-.9-1.4-.8-.7-1.3-.8c-.5-.2-1.1-.2-1.6-.1s-1 .3-1.5.6-.9.7-1.3 1.1c-.4.5-.7 1-.9 1.6-.4 1.2-.4 2.4 0 3.5.5 1.2 1.2 1.9 2.2 2.3zM122.6 62.5c-.7.5-1.5.8-2.3 1s-1.5.2-2.3.1c-.7-.1-1.4-.4-2.1-.8-.6-.4-1.2-.9-1.6-1.6-.4-.6-.7-1.3-.8-2.1s-.1-1.5.1-2.2.5-1.4 1-2.1 1-1.2 1.8-1.7c.7-.5 1.5-.8 2.2-.9.8-.2 1.6-.2 2.3-.1s1.4.4 2.1.8a4.1 4.1 0 0 1 1.6 1.6c.4.7.7 1.4.8 2.1s.1 1.5-.1 2.2-.5 1.4-1 2.1c-.4.6-1 1.2-1.7 1.6zm-1.4-2c.3-.2.5-.5.7-.8a1.93 1.93 0 0 0 .3-1c0-.4 0-.8-.1-1.2s-.3-.8-.5-1.1c-.5-.7-1.1-1.2-1.9-1.4s-1.5-.1-2.1.3c-.3.2-.5.5-.7.8a1.93 1.93 0 0 0-.3 1c0 .4 0 .8.1 1.1.1.4.3.8.5 1.1.5.7 1.1 1.2 1.9 1.4.9.2 1.5.2 2.1-.2zm5.6 15.7l2-16 1.1-15.9 3 .4-1.9 15.7-1.2 16.3-3-.5zm16.5-8.3c-.7.5-1.5.8-2.3 1s-1.5.2-2.3.1c-.7-.1-1.4-.4-2.1-.8-.6-.4-1.2-.9-1.6-1.6s-.7-1.4-.8-2.1-.1-1.5.1-2.2.5-1.4.9-2.1c.5-.7 1-1.2 1.8-1.7.7-.5 1.5-.8 2.3-1s1.5-.2 2.3-.1c.7.1 1.4.4 2.1.8.6.4 1.2.9 1.6 1.6s.7 1.4.8 2.1.1 1.5-.1 2.2-.5 1.4-1 2.1c-.3.6-.9 1.2-1.7 1.7zm-1.3-2.1c.3-.2.5-.5.7-.8a1.93 1.93 0 0 0 .3-1c0-.4 0-.8-.1-1.1-.1-.4-.3-.8-.5-1.1a1.96 1.96 0 0 0-.9-.9 4.67 4.67 0 0 0-1-.5c-.4-.1-.7-.1-1.1-.1s-.7.2-1 .4-.5.5-.7.8a1.93 1.93 0 0 0-.3 1c0 .4 0 .8.1 1.2s.3.8.5 1.1c.5.7 1.1 1.2 1.9 1.4.8.1 1.5 0 2.1-.4z" fill="#78c2ff"/><defs ><path id="h" d="M194.8 122.7s8.6 12.2 18.9 0V79.6h-18.9v43.1z"/></defs></svg>