<?xml version="1.0" encoding="utf-8"?>
<!-- Generator: Adobe Illustrator 26.0.3, SVG Export Plug-In . SVG Version: 6.00 Build 0)  -->
<svg version="1.0" id="katman_1" xmlns="http://www.w3.org/2000/svg" xmlns:xlink="http://www.w3.org/1999/xlink" x="0px" y="0px"
	 viewBox="0 0 600 450" style="enable-background:new 0 0 600 450;" xml:space="preserve">
<style type="text/css">
	.st0{fill-rule:evenodd;clip-rule:evenodd;fill:#543F92;}
	.st1{fill-rule:evenodd;clip-rule:evenodd;fill:#94C45F;}
	.st2{fill-rule:evenodd;clip-rule:evenodd;fill:#F0800A;}
</style>
<g>
	<path class="st0" d="M169.1,297.3c-24.1,0-40.7-19.9-40.7-49.4c0-29.7,16.6-49.7,40.7-49.7c24,0,40.7,19.9,40.7,49.4
		C209.7,277.3,193.1,297.3,169.1,297.3 M169.1,334.6c44.5,0,79.9-37,79.9-87c0-49.4-33.5-86.7-79.9-86.7c-44.5,0-79.9,37-79.9,87
		C89.1,298.1,122.6,334.6,169.1,334.6"/>
	<path class="st1" d="M281.9,268.4h76.3c5.3,0,8.3-3.1,8.3-8.4v-24.4c0-5.3-3-8.4-8.3-8.4h-51.2V123.3c0-5.3-3-8.4-8.3-8.4h-25.2
		c-5.3,0-8.3,3.1-8.3,8.4v128.2C265.3,262.5,271.1,268.4,281.9,268.4"/>
	<path class="st2" d="M385.6,332.1l45.9-53.6l44.5,53.6c3.9,4.8,8.8,4.8,13.3,0.8l18-16c4.4-3.9,5-9,0.8-13.5l-49.5-56.1l45.1-51.3
		c3.9-4.5,3.6-9.3-0.8-13.5L486,167.1c-4.4-4.2-9.4-3.9-13.3,0.8l-41.2,48.5l-42-48.5c-3.9-4.5-8.9-5.1-13.3-0.8l-17.4,15.7
		c-4.4,4.2-4.7,8.7-0.6,13.5l45.9,51.3L354.1,304c-4.1,4.8-3.6,9.5,0.8,13.5l17.4,15.4C376.8,336.8,381.7,336.5,385.6,332.1"/>
</g>
</svg>
